<svg width="200" height="200" viewBox="0 0 200 200" fill="none" xmlns="http://www.w3.org/2000/svg">
<circle cx="100" cy="100" r="97.5" stroke="white" stroke-width="5"/>
<path d="M66.1333 74.6C65.0667 73.8 65.0667 72.2 66.1333 71.4L82.4 59.2C83.2837 58.5373 83.4627 57.2837 82.8 56.4L79.2 51.6C78.5373 50.7163 77.2837 50.5373 76.4 51.2L63.6 60.8C62.7163 61.4627 61.4627 61.2837 60.8 60.4L57.2 55.6C56.5373 54.7163 56.7163 53.4627 57.6 52.8L78.4 37.2C79.2837 36.5373 80.5373 36.7163 81.2 37.6L90.8 50.4C91.4627 51.2837 92.7163 51.4627 93.6 50.8L98.8 46.9C99.5111 46.3667 100.489 46.3667 101.2 46.9L106.4 50.8C107.284 51.4627 108.537 51.2837 109.2 50.4L118.8 37.6C119.463 36.7163 120.716 36.5373 121.6 37.2L142.4 52.8C143.284 53.4627 143.463 54.7163 142.8 55.6L139.2 60.4C138.537 61.2837 137.284 61.4627 136.4 60.8L123.6 51.2C122.716 50.5373 121.463 50.7163 120.8 51.6L117.2 56.4C116.537 57.2837 116.716 58.5373 117.6 59.2L133.867 71.4C134.933 72.2 134.933 73.8 133.867 74.6L101.2 99.1C100.489 99.6333 99.5111 99.6333 98.8 99.1L66.1333 74.6Z" fill="white"/>
<path d="M105 109.006C105 108.373 105.299 107.778 105.807 107.4L137.863 83.5871C138.747 82.9311 140 83.5614 140 84.6615V84.6615C140 85.4007 140.599 85.9999 141.338 85.9999H158C159.105 85.9999 160 86.8954 160 87.9999V114C160 115.105 159.105 116 158 116H152C150.895 116 150 115.105 150 114V97.9999C150 96.8954 149.105 95.9999 148 95.9999H142C140.895 95.9999 140 96.8954 140 97.9999V125C140 125.629 139.704 126.222 139.2 126.6L133.6 130.8C132.716 131.463 132.537 132.716 133.2 133.6L142.8 146.4C143.463 147.284 143.284 148.537 142.4 149.2L121.6 164.8C120.716 165.463 119.463 165.284 118.8 164.4L115.2 159.6C114.537 158.716 114.716 157.463 115.6 156.8L128.4 147.2C129.284 146.537 129.463 145.284 128.8 144.4L125.19 139.586C124.531 138.708 123.287 138.525 122.403 139.176L108.186 149.652C106.866 150.625 105 149.682 105 148.042V109.006Z" fill="white"/>
<path d="M95 109.006C95 108.373 94.7006 107.778 94.1926 107.4L62.1366 83.5872C61.2535 82.9312 60 83.5615 60 84.6616V84.6616C60 85.4008 59.4008 86 58.6616 86H42C40.8954 86 40 86.8954 40 88V114C40 115.105 40.8954 116 42 116H48C49.1046 116 50 115.105 50 114V98C50 96.8954 50.8954 96 52 96H58C59.1046 96 60 96.8954 60 98V125C60 125.63 60.2964 126.222 60.8 126.6L66.4 130.8C67.2837 131.463 67.4627 132.716 66.8 133.6L57.2 146.4C56.5373 147.284 56.7163 148.537 57.6 149.2L78.4 164.8C79.2837 165.463 80.5373 165.284 81.2 164.4L84.8 159.6C85.4627 158.716 85.2837 157.463 84.4 156.8L71.6 147.2C70.7163 146.537 70.5373 145.284 71.2 144.4L74.8101 139.587C75.4689 138.708 76.7126 138.525 77.5965 139.176L91.8136 149.652C93.1341 150.625 95 149.682 95 148.042V109.006Z" fill="white"/>
</svg>
